<!-- Generated by IcoMoon.io -->
<svg version="1.1" xmlns="http://www.w3.org/2000/svg" width="40" height="32" viewBox="0 0 40 32">
<path fill="#2b7fff" d="M12.337 10.242h-12.51c-0.384 0-0.695 0.298-0.695 0.667v4.001c0 0.369 0.311 0.667 0.695 0.667h0.695v15.337c0 0.369 0.311 0.667 0.695 0.667h9.73c0.384 0 0.695-0.298 0.695-0.667v-15.337h0.695c0.384 0 0.695-0.298 0.695-0.667v-4.001c0-0.369-0.311-0.667-0.695-0.667zM4.692 22.912v-1.334h4.17v-1.334h-4.17v-1.334h5.56v8.669h-5.56v-3.334h1.39v-1.334h-1.39zM10.252 17.578h-6.255c-0.384 0-0.695 0.298-0.695 0.667v10.002c0 0.369 0.311 0.667 0.695 0.667h6.255v1.334h-8.34v-14.67h8.34v2zM11.642 14.243h-11.12v-2.667h11.12v2.667z"></path>
<path fill="#2b7fff" d="M21.546 10.367v-4.875c0-0.38-0.311-0.687-0.695-0.687h-0.695v-3.433h1.39v-1.373h-7.645v1.373h4.865v3.433h-0.695c-0.384 0-0.695 0.307-0.695 0.687v4.875c-1.584 0.319-2.78 1.705-2.78 3.363v17.163c0 0.38 0.311 0.687 0.695 0.687h8.34c0.384 0 0.695-0.307 0.695-0.687v-17.163c0-1.657-1.196-3.044-2.78-3.363zM18.766 6.179h1.39v4.119h-1.39v-4.119zM18.071 11.671h2.78c1.15 0 2.085 0.924 2.085 2.060v0.687h-6.95v-0.687c0-1.136 0.936-2.060 2.085-2.060zM22.936 27.462h-6.95v-1.373h2.78v-1.373h-2.78v-8.925h6.95v11.671zM15.986 30.208v-1.373h6.95v1.373h-6.95z"></path>
<path fill="#2b7fff" d="M39.313 9.389h-11.729c-0.36 0-0.652 0.301-0.652 0.672v20.847c0 0.372 0.291 0.672 0.652 0.672h11.729c0.36 0 0.652-0.301 0.652-0.672v-20.847c0-0.372-0.291-0.672-0.652-0.672zM38.661 30.236h-10.425v-19.502h10.425v19.502z"></path>
<path fill="#2b7fff" d="M9.557 23.045h-1.738v0.854h1.738v-0.854z"></path>
<path fill="#2b7fff" d="M21.72 24.753h-1.738v1.707h1.738v-1.707z"></path>
<path fill="#2b7fff" d="M19.548 23.046c1.677 0 3.041-1.34 3.041-2.987s-1.364-2.987-3.041-2.987c-1.677 0-3.041 1.34-3.041 2.987s1.364 2.987 3.041 2.987zM19.548 18.564c0.838 0 1.52 0.67 1.52 1.494s-0.682 1.494-1.52 1.494c-0.838 0-1.52-0.67-1.52-1.494s0.682-1.494 1.52-1.494z"></path>
<path fill="#2b7fff" d="M31.819 16.217h3.258c1.258 0 2.281-0.957 2.281-2.134s-1.023-2.134-2.281-2.134h-3.258c-1.258 0-2.28 0.957-2.28 2.134s1.023 2.134 2.28 2.134zM36.054 14.083c0 0.504-0.438 0.915-0.977 0.915h-0.977v-1.829h0.977c0.539 0 0.977 0.41 0.977 0.915zM31.819 13.169h0.977v1.829h-0.977c-0.539 0-0.977-0.41-0.977-0.915s0.439-0.915 0.977-0.915z"></path>
<path fill="#2b7fff" d="M31.819 23.045h3.258c1.258 0 2.281-1.149 2.281-2.561s-1.023-2.561-2.281-2.561h-3.258c-1.258 0-2.28 1.149-2.28 2.561s1.023 2.561 2.28 2.561zM36.054 20.485c0 0.605-0.438 1.097-0.977 1.097h-0.977v-2.195h0.977c0.539 0 0.977 0.492 0.977 1.097zM31.819 19.387h0.977v2.195h-0.977c-0.539 0-0.977-0.492-0.977-1.097s0.439-1.097 0.977-1.097z"></path>
<path fill="#2b7fff" d="M31.819 29.020h3.258c1.258 0 2.281-1.149 2.281-2.561s-1.023-2.561-2.281-2.561h-3.258c-1.258 0-2.28 1.149-2.28 2.561s1.023 2.561 2.28 2.561zM36.054 26.46c0 0.605-0.438 1.097-0.977 1.097h-0.977v-2.195h0.977c0.539 0 0.977 0.492 0.977 1.097zM31.819 25.362h0.977v2.195h-0.977c-0.539 0-0.977-0.492-0.977-1.097s0.439-1.097 0.977-1.097z"></path>
</svg>
