<?xml version="1.0" encoding="utf-8"?>
<!-- Generated by IcoMoon.io -->
<svg version="1.1" xmlns="http://www.w3.org/2000/svg" xmlns:xlink="http://www.w3.org/1999/xlink" width="752" height="32" viewBox="0 0 752 32">
<svg id="sprite-navigation" width="352" height="32" viewBox="0 0 352 32" x="0" y="0">
<path fill="#2b7fff" d="M90.182 16c0 8.837-7.163 16-16 16s-16-7.163-16-16c0-8.837 7.163-16 16-16s16 7.163 16 16z"></path>
<path fill="#747272" d="M192 16c0 8.837-7.163 16-16 16s-16-7.163-16-16c0-8.837 7.163-16 16-16s16 7.163 16 16z"></path>
<path fill="#747272" d="M293.818 16c0 8.837-7.163 16-16 16s-16-7.163-16-16c0-8.837 7.163-16 16-16s16 7.163 16 16z"></path>
</svg>
<svg id="sprite-rightArrow" width="32" height="32" viewBox="0 0 32 32" x="384" y="0">
<path fill="#fff" stroke="#011c44" stroke-linejoin="miter" stroke-linecap="butt" stroke-miterlimit="4" stroke-width="0.5587" d="M0.279 16c0 8.682 7.038 15.721 15.721 15.721s15.721-7.038 15.721-15.721c0-8.682-7.038-15.721-15.721-15.721s-15.721 7.038-15.721 15.721z"></path>
<path fill="#011c44" d="M23.060 15.486c0.284 0.284 0.284 0.744 0 1.029l-4.628 4.628c-0.284 0.284-0.744 0.284-1.029 0s-0.284-0.744 0-1.029l4.114-4.114-4.114-4.114c-0.284-0.284-0.284-0.744 0-1.028s0.744-0.284 1.029 0l4.628 4.628zM22.545 16.727h-12.19v-1.455h12.19v1.455z"></path>
</svg>
<svg id="sprite-leftArrow" width="32" height="32" viewBox="0 0 32 32" x="432" y="0">
<path fill="#fff" stroke="#011c44" stroke-linejoin="miter" stroke-linecap="butt" stroke-miterlimit="4" stroke-width="0.5587" d="M0.279 16c0 8.682 7.038 15.721 15.721 15.721s15.721-7.038 15.721-15.721c0-8.682-7.038-15.721-15.721-15.721s-15.721 7.038-15.721 15.721z"></path>
<path fill="#011c44" d="M9.841 16.514c-0.284-0.284-0.284-0.745 0-1.028l4.628-4.628c0.284-0.284 0.745-0.284 1.029 0s0.284 0.745 0 1.028l-4.114 4.114 4.114 4.114c0.284 0.284 0.284 0.744 0 1.029s-0.745 0.284-1.029 0l-4.628-4.628zM22.545 16.727h-12.19v-1.455h12.19v1.455z"></path>
</svg>
</svg>
