<!-- Generated by IcoMoon.io -->
<svg version="1.1" xmlns="http://www.w3.org/2000/svg" width="32" height="32" viewBox="0 0 32 32">
<path fill="#fff" d="M23.986 2.128c-1.181-0.133-2.55-0.208-3.937-0.208-0.039 0-0.079 0-0.118 0h0.006c-4.485 0-7.271 2.856-7.271 7.454v3.121h-3.768c-0.368 0-0.667 0.298-0.667 0.667v0 5.134c0 0.368 0.298 0.667 0.667 0.667v0h3.767v10.293c0 0.368 0.298 0.667 0.667 0.667v0h5.304c0.368 0 0.667-0.298 0.667-0.667v0-10.293h3.755c0 0 0 0 0 0 0.338 0 0.617-0.251 0.661-0.577l0-0.003 0.663-5.133c0.003-0.026 0.005-0.055 0.005-0.085 0-0.369-0.298-0.667-0.667-0.668h-4.418v-2.612c0-1.293 0.261-1.833 1.877-1.833h2.719c0.368 0 0.667-0.298 0.667-0.667v0-4.594c0-0 0-0 0-0 0-0.338-0.251-0.617-0.577-0.661l-0.003-0zM23.233 6.714l-2.053 0.002c-2.876 0-3.21 1.808-3.21 3.166v3.28c0 0.368 0.298 0.666 0.666 0.667h4.328l-0.492 3.8h-3.835c-0.368 0-0.667 0.298-0.667 0.667v0 10.291h-3.97v-10.291c0-0.368-0.298-0.667-0.667-0.667v0h-3.765v-3.8h3.766c0.368 0 0.667-0.298 0.667-0.667v0-3.789c0-3.832 2.22-6.12 5.938-6.12 1.345 0 2.56 0.073 3.296 0.137z"></path>
</svg>
