<!-- Generated by IcoMoon.io -->
<svg version="1.1" xmlns="http://www.w3.org/2000/svg" width="32" height="32" viewBox="0 0 32 32">
<path fill="#fff" d="M16 10.25c-0.020-0-0.043-0-0.066-0-3.176 0-5.75 2.574-5.75 5.75s2.574 5.75 5.75 5.75c0.023 0 0.047-0 0.070-0l-0.004 0c3.147-0.037 5.684-2.597 5.684-5.75s-2.537-5.712-5.68-5.75l-0.004-0zM16 20.25c-2.347 0-4.25-1.903-4.25-4.25s1.903-4.25 4.25-4.25c2.347 0 4.25 1.903 4.25 4.25v0c-0.007 2.344-1.906 4.243-4.249 4.25h-0.001zM21.5 3.75h-11.001c-3.728 0-6.75 3.022-6.75 6.75v0 11c0 3.728 3.022 6.75 6.75 6.75h11.002c3.728 0 6.75-3.022 6.75-6.75v0-11.001c0-3.728-3.022-6.75-6.75-6.75v0zM26.75 21.499c0 2.899-2.35 5.25-5.25 5.25v0h-11.002c-2.899 0-5.25-2.35-5.25-5.25v0-11c0-2.899 2.35-5.25 5.25-5.25v0h11.002c2.899 0 5.25 2.35 5.25 5.25v0zM23.751 9.499c0 0.69-0.559 1.25-1.25 1.25s-1.25-0.559-1.25-1.25v0c0-0.69 0.559-1.25 1.25-1.25s1.25 0.559 1.25 1.25v0z"></path>
</svg>
