<!-- Generated by IcoMoon.io -->
<svg version="1.1" xmlns="http://www.w3.org/2000/svg" width="32" height="32" viewBox="0 0 32 32">
<path fill="#fff" d="M27.655 22.958l-0.174-0.216c-1.371-1.735-2.519-2.637-3.502-2.756-0.851-0.117-1.674 0.472-2.548 1.077l-0.935 0.584c-0.092 0.048-0.2 0.093-0.312 0.128l-0.015 0.004c-0.547 0.155-1.927 0.246-2.708-0.469-0.91-0.831-2.32-2.354-3.417-3.685-1.048-1.377-2.2-3.094-2.802-4.175-0.508-0.917-0.083-2.197 0.201-2.673 0.065-0.104 0.135-0.194 0.212-0.277l-0.001 0.001 0.824-0.761c0.012-0.012 0.018-0.027 0.028-0.037 0.008-0.008 0.021-0.005 0.030-0.012 0.744-0.628 1.513-1.275 1.619-2.105 0.123-0.976-0.483-2.296-1.858-4.029l-0.168-0.216c-0.851-1.090-2.138-2.74-3.986-2.469-0.726 0.109-1.375 0.357-2.045 0.777-0.007 0.004-0.011 0.011-0.016 0.015s-0.012 0.005-0.018 0.008l-0.931 0.692c-0.009 0.005-0.015 0.018-0.024 0.026-0.008 0.006-0.018 0.008-0.026 0.014-0.125 0.105-0.23 0.196-0.333 0.289l0.011-0.010c-0.946 0.842-2.993 3.289-1.597 7.814 0.901 2.923 2.76 6.334 5.388 9.883l-0.026 0.021 1.45 1.806 0.012-0.010c2.85 3.371 5.749 5.976 8.406 7.554 1.774 1.054 3.323 1.402 4.597 1.402 1.678 0 2.879-0.603 3.482-0.995l0.378-0.254c0.043-0.029 0.074-0.071 0.104-0.108l0.825-0.621c0.009-0.008 0.015-0.018 0.024-0.027 0.004-0.004 0.011-0.003 0.015-0.007 0.587-0.536 0.994-1.097 1.276-1.762 0.732-1.706-0.578-3.339-1.445-4.421zM28.12 26.958c-0.219 0.518-0.541 0.958-1.006 1.384l-1.227 0.923c-1.112 0.723-3.49 1.616-6.942-0.434-2.658-1.577-5.583-4.244-8.462-7.712l-0.779-0.984c-2.71-3.595-4.617-7.038-5.517-9.955-1.17-3.794 0.304-5.829 1.291-6.706 0.1-0.091 0.2-0.175 0.299-0.259l0.004-0.004 0.894-0.663c0.544-0.344 1.048-0.536 1.628-0.624 1.239-0.187 2.247 1.12 2.987 2.069l0.173 0.22c1.537 1.938 1.684 2.859 1.637 3.234-0.053 0.418-0.688 0.952-1.248 1.423l-0.079 0.066-0.006 0.009q-0.005 0.003-0.012 0.007l-0.852 0.788c-0.005 0.005-0.008 0.012-0.014 0.019s-0.015 0.009-0.021 0.015c-0.121 0.133-0.232 0.28-0.33 0.437l-0.007 0.013c-0.478 0.802-0.93 2.458-0.217 3.739 0.622 1.12 1.808 2.89 2.898 4.319 1.138 1.381 2.59 2.949 3.532 3.81 0.705 0.644 1.687 0.859 2.536 0.859 0.005 0 0.012 0 0.018 0 0.416 0 0.819-0.056 1.203-0.16l-0.032 0.007q0.249-0.072 0.516-0.203c0.011-0.005 0.015-0.015 0.027-0.021 0.005-0.002 0.013-0.002 0.018-0.005l0.99-0.619c0.032-0.021 0.053-0.050 0.080-0.076l0.011 0.014c0.61-0.423 1.304-0.919 1.739-0.846 0.385 0.046 1.259 0.417 2.798 2.36l0.178 0.222c0.749 0.935 1.775 2.215 1.297 3.333z"></path>
</svg>
